/* XPM */
static char * sprite_214[] = {
"25 27 17 1",
".     c None",
"A     c black",
"B     c blue4",
"C     c green4",
"D     c cyan4",
"E     c red4",
"F     c purple",
"G     c brown",
"H     c gray65",
"I     c gray35",
"J     c blue1",
"K     c green1",
"L     c cyan1",
"M     c red1",
"N     c purple1",
"O     c yellow",
"P     c white",
".........................",
"......................GG.",
".....................GGG.",
"....................GGG..",
"...................GGG...",
"..................GGG....",
".................GGG.....",
"................GGG......",
"...............GGG.......",
"..............GGG........",
".............GGG.........",
"............GGG..........",
"...........GGG...........",
"..........GGG............",
".........GGG.............",
"........GGG..............",
".......GGG...............",
"...OHOGGG................",
"..OHOHGG.................",
".OHOHOHO.................",
"OHOHOHOHO................",
"HOHOHOHO.................",
"OHOHOHO..................",
"HOHOHO...................",
"OHOHO....................",
".OHO.....................",
"........................."};

